<svg width="680" height="500" viewBox="0 0 680 500" fill="none" xmlns="http://www.w3.org/2000/svg">
  <rect x="92" y="68" width="210" height="118" fill="#fff" stroke="#11110F" stroke-width="2"/>
  <rect x="116" y="96" width="78" height="9" fill="#11110F"/>
  <rect x="116" y="118" width="145" height="6" fill="#D9DAD3"/>
  <rect x="116" y="137" width="106" height="6" fill="#D9DAD3"/>
  <rect x="410" y="86" width="154" height="102" fill="#fff" stroke="#11110F" stroke-width="2" transform="rotate(4 410 86)"/>
  <rect x="436" y="112" width="62" height="7" fill="#11110F" transform="rotate(4 436 112)"/>
  <rect x="436" y="133" width="99" height="6" fill="#D9DAD3" transform="rotate(4 436 133)"/>
  <rect x="314" y="214" width="225" height="130" fill="#fff" stroke="#11110F" stroke-width="2"/>
  <rect x="337" y="239" width="76" height="10" fill="#C7F34A"/>
  <rect x="337" y="265" width="174" height="7" fill="#D9DAD3"/>
  <rect x="337" y="286" width="130" height="7" fill="#D9DAD3"/>
  <circle cx="158" cy="297" r="31" stroke="#11110F" stroke-width="2"/>
  <path d="M112 390C119 344 137 326 158 326C179 326 197 344 204 390" stroke="#11110F" stroke-width="2"/>
  <circle cx="274" cy="343" r="28" stroke="#11110F" stroke-width="2"/>
  <path d="M230 431C238 388 254 372 274 372C294 372 311 389 318 431" stroke="#11110F" stroke-width="2"/>
  <circle cx="447" cy="402" r="27" stroke="#11110F" stroke-width="2"/>
  <path d="M405 478C412 439 428 428 447 428C466 428 482 440 490 478" stroke="#11110F" stroke-width="2"/>
  <path d="M188 289C228 251 266 247 307 257" stroke="#C7F34A" stroke-width="4" stroke-linecap="round" stroke-dasharray="7 10"/>
  <path d="M296 246L311 258L294 266" stroke="#C7F34A" stroke-width="4" stroke-linecap="round" stroke-linejoin="round"/>
  <path d="M374 354C385 380 397 391 417 397" stroke="#C7F34A" stroke-width="4" stroke-linecap="round" stroke-dasharray="7 10"/>
  <path d="M407 387L420 399L402 404" stroke="#C7F34A" stroke-width="4" stroke-linecap="round" stroke-linejoin="round"/>
  <path d="M498 216C536 211 565 219 592 241" stroke="#11110F" stroke-width="2" stroke-dasharray="5 9"/>
  <path d="M584 225L594 242L575 244" stroke="#11110F" stroke-width="2" stroke-linecap="round" stroke-linejoin="round"/>
  <path d="M66 206L83 203M75 191L82 205M62 222L82 209" stroke="#11110F" stroke-width="2" stroke-linecap="round"/>
  <path d="M580 326L599 319M582 341L601 336M575 311L589 299" stroke="#11110F" stroke-width="2" stroke-linecap="round"/>
</svg>
